# xmcd CD database file
#
# Track frame offsets:
#	183
#	21333
#	62433
#	103908
#	135558
#	163608
#
# Disc length: 2552 seconds
#
# Revision: 5
# Processed by: cddbd v1.5.2PL0 Copyright (c) Steve Scherf et al.
# Submitted via: CDex 1.51
#
DISCID=4a09f606
DTITLE=SalNistico - Empty Rooms
DYEAR=1988
DGENRE=Jazz
TTITLE0=Come Rain or Come Shine
TTITLE1=Lush Life
TTITLE2=Inner Urge
TTITLE3=Empty Room
TTITLE4=I Should Care
TTITLE5=Hymn
EXTD=YEAR: 1988
EXTT0=
EXTT1=
EXTT2=
EXTT3=
EXTT4=
EXTT5=
PLAYORDER=
